# xmcd
#
# Track frame offsets: 
#        150
#        35465
#        68002
#        99237
#        124980
#        178115
#        203475
#        233430
#
# Disc length: 3380 seconds
#
# Revision: 2
# Processed by: cddbd v1.4PL0 Copyright (c) Steve Scherf et al.
# Submitted via: ExactAudioCopy v0.90b4
#
DISCID=5e0d3208
DTITLE=Various Artist - Lullaby for the Moon
DYEAR=1998
DGENRE=Instrumental
TTITLE0=Tanaka, Inzan - Komoriuta (Lullaby)
TTITLE1=Tanaka, Inzan - Toge Hachi-Ri (Eight Miles Through a Mountain 
TTITLE1=Pass)
TTITLE2=Tanaka, Inzan - Kuon No Hikari (Eternal Lights)
TTITLE3=Hoshida, Ichizan - Umi (Sea Fantasy)
TTITLE4=Shimizu, Osamu - Muttsu (Six Fragments for Koto)
TTITLE5=Sajura - Sakura (Cherry Blossoms)
TTITLE6=Yamakawa, Ensho - Kojo (Moonlight on a Ruined Castle)
TTITLE7=Yoshizawa, Kengyo - Chidori (The Ploughman's Song)
EXTD=Japanese Music for Koto and Shakuhachi
EXTT0=
EXTT1=
EXTT2=
EXTT3=
EXTT4=
EXTT5=
EXTT6=
EXTT7=
PLAYORDER=
